<svg width="624" height="624" viewBox="0 0 624 624" fill="none" xmlns="http://www.w3.org/2000/svg">
<g clip-path="url(#clip0_182_217)">
<rect width="623.65" height="623.63" fill="url(#paint0_linear_182_217)" fillOpacity="0.9"/>
<path d="M311.995 624C304.881 624 297.787 623.76 290.923 623.3C283.829 622.829 276.725 622.109 269.791 621.158C266.74 620.748 263.978 620.338 261.347 619.908C253.532 618.637 245.578 617.026 237.713 615.105C235.022 614.454 232.38 613.774 229.879 613.074C228.998 612.843 228.098 612.593 227.207 612.343C223.405 611.272 219.723 610.162 216.281 609.041C216.061 608.981 215.801 608.891 215.541 608.811C212.429 607.81 209.187 606.7 205.915 605.509C203.154 604.508 200.352 603.448 197.351 602.267C191.097 599.806 184.834 597.084 178.73 594.192C176.189 593.002 173.537 591.691 170.616 590.21C170.095 589.95 169.565 589.68 169.045 589.409L168.444 589.099C134.145 571.289 103.738 547.525 78.0838 518.477C27.7356 461.464 0 388.13 0 311.995C0 228.656 32.4582 150.299 91.3812 91.3742C150.304 32.4492 228.658 0 311.995 0C395.332 0 473.686 32.4492 532.619 91.3742C591.552 150.299 624 228.656 624 311.995C624 360.964 612.974 407.842 591.242 451.328C570.51 492.792 540.163 529.804 503.462 558.351C494.837 565.075 485.752 571.399 476.467 577.162C467.052 583.026 457.176 588.459 447.111 593.302C444.869 594.382 442.468 595.503 439.546 596.814L439.266 596.934C438.906 597.094 438.546 597.254 438.186 597.404C436.005 598.375 433.783 599.325 431.592 600.226L430.601 600.646C429.981 600.906 429.401 601.146 428.82 601.367C421.386 604.368 413.892 607.07 406.548 609.381C405.968 609.581 405.377 609.762 404.777 609.942L404.257 610.102C398.153 611.993 391.73 613.754 385.196 615.325C361.393 621.068 336.759 623.98 311.995 623.98V624ZM311.995 2.00119C229.189 2.00119 151.345 34.2403 92.792 92.795C34.2492 151.34 2.00112 229.186 2.00112 311.995C2.00112 387.65 29.5566 460.503 79.5946 517.147C105.089 546.004 135.296 569.618 169.375 587.308L169.975 587.618C170.486 587.889 171.006 588.149 171.526 588.409C174.438 589.89 177.069 591.191 179.591 592.371C185.654 595.243 191.878 597.945 198.091 600.386C201.073 601.567 203.854 602.617 206.596 603.608C209.848 604.789 213.069 605.889 216.171 606.89C216.411 606.97 216.641 607.04 216.872 607.11C220.324 608.231 223.966 609.331 227.748 610.402C228.618 610.652 229.509 610.902 230.389 611.132C232.891 611.823 235.502 612.503 238.174 613.154C245.998 615.065 253.892 616.676 261.667 617.926C264.278 618.357 267.02 618.767 270.051 619.177C276.935 620.118 283.999 620.838 291.043 621.298C297.867 621.759 304.911 621.999 311.975 621.999C336.589 621.999 361.052 619.107 384.716 613.404C391.209 611.843 397.583 610.092 403.666 608.211L404.187 608.051C404.767 607.87 405.337 607.7 405.918 607.5C413.232 605.199 420.686 602.517 428.08 599.525C428.66 599.295 429.221 599.065 429.781 598.835L431.012 598.325C433.123 597.454 435.264 596.534 437.385 595.593C437.756 595.433 438.096 595.283 438.446 595.123L438.726 595.003C441.628 593.692 444.019 592.581 446.24 591.511C456.246 586.698 466.061 581.305 475.417 575.471C484.642 569.748 493.667 563.454 502.242 556.78C538.702 528.403 568.859 491.632 589.461 450.437C611.053 407.241 622.009 360.664 622.009 312.005C622.009 229.196 589.761 151.35 531.208 92.805C472.655 34.2403 394.801 2.00119 311.995 2.00119Z" fill="#9C7744"/>
<path d="M273.97 426.13L349.74 444.28L340.95 338.1L274.03 343.64L273.97 426.13Z" fill="#F3A3A6"/>
<path d="M328.17 368.5C368.906 368.5 401.93 335.477 401.93 294.74C401.93 254.003 368.906 220.98 328.17 220.98C287.433 220.98 254.41 254.003 254.41 294.74C254.41 335.477 287.433 368.5 328.17 368.5Z" fill="#F3A3A6"/>
<path d="M406.02 608.08C405.43 608.28 404.85 608.46 404.26 608.64C404.09 608.69 403.92 608.75 403.75 608.8C397.5 610.74 391.16 612.47 384.75 614.01C361.36 619.65 336.93 622.63 311.82 622.63C304.76 622.63 297.76 622.4 290.83 621.93C283.74 621.46 276.72 620.75 269.78 619.8C266.96 619.42 264.16 619.01 261.37 618.55C253.42 617.26 245.56 615.65 237.82 613.76C235.21 613.13 232.61 612.46 230.02 611.74C229.13 611.51 228.24 611.26 227.36 611.01C223.71 609.98 220.08 608.89 216.48 607.72C216.24 607.65 215.99 607.57 215.75 607.49C212.53 606.45 209.33 605.35 206.15 604.2C203.29 603.17 200.45 602.09 197.62 600.97C191.33 598.49 185.15 595.81 179.07 592.93L181.41 582.33L189.52 545.61L207.13 465.83L224.93 385.21L271.7 386.51H271.72L274 386.58L345.13 388.56L376.25 389.43L406.02 608.08Z" fill="#DADBDC"/>
<path d="M475.68 575.97C466.26 581.84 456.49 587.21 446.43 592.05C443.94 593.25 441.42 594.41 438.89 595.55C438.44 595.75 438 595.95 437.55 596.14C435.37 597.11 433.18 598.05 430.97 598.96L429.98 599.38C429.4 599.62 428.82 599.86 428.23 600.09C420.96 603.03 413.56 605.71 406.03 608.08C405.44 608.28 404.86 608.46 404.27 608.64L339.03 441.71L334.62 430.44L322.32 398.95L318.24 388.52L345.17 388.94L376.26 389.43C404.48 393.04 427.88 413.01 435.89 440.3L475.69 575.97H475.68Z" fill="#DADBDC"/>
<path d="M276.43 328.44C279.05 328 281.67 327.55 284.29 327.11C284.91 313.1 286.26 297.47 296.75 288.16C302.53 283.03 310.89 280.04 313.76 272.86C316.14 266.91 313.92 259.6 317.24 254.12C320.73 248.35 328.53 247.32 335.27 246.9C345.82 246.25 356.56 245.61 366.83 248.11C377.1 250.62 387.01 256.8 391.39 266.42C392.74 269.38 393.52 272.57 394.3 275.73C396.93 286.42 400.96 306.76 400.96 306.76C400.96 306.76 401.74 302.55 403.96 294.36C408.49 287.88 414.02 281.9 416.68 274.46C419.88 265.5 418.47 255.49 415.33 246.52C408.2 226.11 391.66 208.86 371.06 202.3C350.45 195.75 330.96 192.04 315.56 207.22C312.67 210.07 310.07 213.25 306.77 215.61C300.67 219.98 292.88 221.08 286 224.1C270.69 230.82 256.85 246.98 253.4 263.34C249.95 279.7 251.75 296.65 253.57 313.28C255.14 327.62 261.95 343.61 273.89 351.71C274.38 344.37 274.87 337.04 275.36 329.7L276.42 328.45L276.43 328.44Z" fill="#2F2E43"/>
<path d="M317.26 397.4L316.54 398.58L296.4 431.5L266.54 480.34L260.49 490.23L238.43 526.31C238.43 526.31 231.27 536.38 219.19 549.29L219.15 549.33C214.76 554.01 209.73 559.06 204.16 564.13C204.12 564.18 204.08 564.22 204.03 564.25C197.23 570.45 189.63 576.68 181.41 582.33C178.03 584.66 174.55 586.88 170.99 588.96C170.26 588.6 169.54 588.22 168.82 587.85C134.6 570.08 104.1 546.14 78.7998 517.5C105.21 475.32 157.47 428.02 191.14 399.85C210.19 383.9 235.64 377.89 259.8 383.67L271.7 386.51L274 387.06L317.26 397.4Z" fill="#DADBDC"/>
<path d="M411.219 387.25C398.249 382.58 363.919 382.56 348.519 387.76C345.529 388.77 343.719 391.81 344.239 394.92L344.849 398.61C343.509 398.41 342.199 398.03 340.959 397.46C337.289 395.78 330.059 393.5 322.759 397.14C317.659 399.68 314.069 404.47 312.809 410.04C309.799 423.36 317.389 430.73 317.389 430.73L327.499 440.22C335.969 448.16 345.209 455.24 355.079 461.34L355.279 461.46L351.679 439.8C349.649 443.37 345.059 444.54 341.569 442.38C332.749 436.92 318.339 425.98 320.089 413.56C321.309 404.9 326.119 403.06 330.739 403.45C335.909 403.89 340.419 407.14 342.629 411.83C343.159 412.95 344.029 413.87 345.109 414.47L347.709 415.89L355.329 461.8C355.669 463.86 356.989 465.64 358.859 466.56C376.779 475.35 396.119 470.79 402.809 468.74C404.339 468.27 405.649 467.26 406.469 465.88L407.909 463.49C408.409 462.67 408.709 461.74 408.809 460.79L415.459 393.97C415.749 391.02 413.999 388.26 411.209 387.25H411.219Z" fill="#9C7744"/>
<path d="M380.169 393.64C396.809 393.64 410.299 392.368 410.299 390.8C410.299 389.231 396.809 387.96 380.169 387.96C363.529 387.96 350.039 389.231 350.039 390.8C350.039 392.368 363.529 393.64 380.169 393.64Z" fill="#DEDFE0"/>
<path d="M319.98 447.72C336.33 435.21 342.8 416.4 334.43 405.71C326.07 395.02 306.04 396.49 289.68 409.01C283.08 413.92 277.8 420.38 274.31 427.85L205.75 481.74L232.97 514.3L297.67 457.71C305.86 456.24 313.51 452.81 319.97 447.72H319.98Z" fill="#F3A3A6"/>
<path d="M274.62 494.54L247.5 446.84L148.81 493.28L204.03 564.26L274.62 494.54Z" fill="#DADBDC"/>
<path opacity="0.1" d="M215.47 461.91C215.47 461.91 143.53 514.58 146.19 514.29C148.85 514 184.32 494.49 184.32 494.49L215.47 461.91Z" fill="#272223"/>
</g>
<defs>
<linearGradient id="paint0_linear_182_217" x1="0" y1="0" x2="626.295" y2="2.66805" gradientUnits="userSpaceOnUse">
<stop stopColor="white" stopOpacity="0.6"/>
<stop offset="1" stopColor="white" stopOpacity="0.2"/>
</linearGradient>
<clipPath id="clip0_182_217">
<rect width="623.65" height="623.63" rx="311.815" fill="white"/>
</clipPath>
</defs>
</svg>
